<svg width="23" height="24" viewBox="0 0 23 24" fill="none" xmlns="http://www.w3.org/2000/svg">
<path d="M22.3969 17.1692L19.1804 13.9595C18.0317 12.8132 16.0788 13.2717 15.6193 14.7619C15.2747 15.7937 14.1259 16.3668 13.0921 16.1375C10.7946 15.5644 7.693 12.5839 7.11863 10.1766C6.77401 9.14488 7.46326 7.99855 8.49712 7.6547C9.99048 7.19617 10.45 5.24741 9.30124 4.10109L6.08477 0.891372C5.16578 0.0889436 3.78729 0.0889436 2.98317 0.891372L0.800565 3.06939C-1.38204 5.36205 1.03031 11.4376 6.42939 16.8253C11.8285 22.213 17.9168 24.735 20.2143 22.4423L22.3969 20.2643C23.201 19.3472 23.201 17.9716 22.3969 17.1692Z" fill="#86BE3F"/>
</svg>
