<svg width="26" height="21" viewBox="0 0 26 21" fill="none" xmlns="http://www.w3.org/2000/svg">
<path d="M6.76125 20.4C5.58792 20.4 4.62792 20.16 3.88125 19.68C3.13458 19.2 2.52125 18.5867 2.04125 17.84C1.50792 16.9333 1.13458 16 0.92125 15.04C0.76125 14.0267 0.68125 13.2 0.68125 12.56C0.68125 9.94666 1.34792 7.57333 2.68125 5.44C4.01458 3.30667 6.09458 1.57333 8.92125 0.239995L9.64125 1.68C7.98792 2.37333 6.54792 3.46666 5.32125 4.96C4.14792 6.45333 3.56125 7.97333 3.56125 9.52C3.56125 10.16 3.64125 10.72 3.80125 11.2C4.65458 10.5067 5.64125 10.16 6.76125 10.16C8.14792 10.16 9.34792 10.6133 10.3613 11.52C11.3746 12.4267 11.8813 13.68 11.8813 15.28C11.8813 16.7733 11.3746 18 10.3613 18.96C9.34792 19.92 8.14792 20.4 6.76125 20.4ZM20.3613 20.4C19.1879 20.4 18.2279 20.16 17.4813 19.68C16.7346 19.2 16.1213 18.5867 15.6413 17.84C15.1079 16.9333 14.7346 16 14.5213 15.04C14.3613 14.0267 14.2813 13.2 14.2813 12.56C14.2813 9.94666 14.9479 7.57333 16.2812 5.44C17.6146 3.30667 19.6946 1.57333 22.5213 0.239995L23.2413 1.68C21.5879 2.37333 20.1479 3.46666 18.9213 4.96C17.7479 6.45333 17.1613 7.97333 17.1613 9.52C17.1613 10.16 17.2413 10.72 17.4012 11.2C18.2546 10.5067 19.2413 10.16 20.3613 10.16C21.7479 10.16 22.9479 10.6133 23.9613 11.52C24.9746 12.4267 25.4813 13.68 25.4813 15.28C25.4813 16.7733 24.9746 18 23.9613 18.96C22.9479 19.92 21.7479 20.4 20.3613 20.4Z" fill="#9A9A9A"/>
</svg>
