<svg width="23" height="34" viewBox="0 0 23 34" fill="none" xmlns="http://www.w3.org/2000/svg">
<path d="M11.1021 21.1225L12.7296 19.4948C13.2486 18.9759 13.2486 18.1347 12.7296 17.6158C12.211 17.0968 11.3696 17.0968 10.8506 17.6158L9.22305 19.2437C8.98633 18.357 9.21568 17.3717 9.91113 16.6762C10.0653 16.5221 10.4719 16.2877 11.2081 16.0518C11.8985 15.8306 12.7184 15.657 13.5277 15.5247C14.0606 15.4376 14.575 15.3708 15.0253 15.3203C14.9745 15.7706 14.9077 16.2851 14.8207 16.8177C14.6884 17.6271 14.515 18.4469 14.2938 19.1374C14.0579 19.8739 13.8233 20.2802 13.6692 20.4344C12.9738 21.1298 11.9887 21.3594 11.1021 21.1225L11.1021 21.1225Z" fill="#86BE3F"/>
<path fill-rule="evenodd" clip-rule="evenodd" d="M15.6215 1.37569V2.75111H18.3727C20.6519 2.75111 22.4995 4.59876 22.4995 6.87799V28.8874C22.4995 31.1667 20.6519 33.0143 18.3727 33.0143H4.61711C2.33788 33.0143 0.490234 31.1667 0.490234 28.8874V6.87799C0.490234 4.59876 2.33788 2.75111 4.61711 2.75111H7.36829V1.37569C7.36829 0.615974 7.98399 0 8.74371 0H14.2461C15.0058 0 15.6218 0.615967 15.6218 1.37569H15.6215ZM17.7319 13.8269C17.7528 13.437 17.6072 13.0563 17.3308 12.7799C17.0271 12.4762 16.6233 12.3589 16.2028 12.3839C16.0544 12.3932 15.7105 12.4163 15.2407 12.4605C14.6163 12.5187 13.7618 12.6143 12.8498 12.7633C11.9438 12.9114 10.948 13.1173 10.0526 13.4043C9.20493 13.6758 8.25023 14.0791 7.60372 14.7253C5.79093 16.5383 5.50748 19.3017 6.75386 21.4116L6.63132 21.5341C6.09405 22.0714 6.09405 22.9423 6.63132 23.4795C7.16832 24.0168 8.03943 24.0168 8.57642 23.4795L8.69923 23.357C10.8091 24.6031 13.5725 24.3199 15.3853 22.5069C16.0315 21.8607 16.4348 20.9059 16.7066 20.0579C16.9933 19.1628 17.1994 18.1667 17.3473 17.2608C17.4963 16.3488 17.5918 15.4943 17.6504 14.8701C17.6828 14.5229 17.7125 14.1749 17.7318 13.8269L17.7319 13.8269Z" fill="#86BE3F"/>
</svg>
