<svg width="255" height="136" viewBox="0 0 255 136" fill="none" xmlns="http://www.w3.org/2000/svg">
<path d="M253.25 1.61035C253.25 1.19614 253.586 0.860352 254 0.860352C254.414 0.860352 254.75 1.19614 254.75 1.61035H253.25ZM1.75 5.61035C1.75 6.02455 1.41421 6.36035 1 6.36035C0.585786 6.36035 0.25 6.02455 0.25 5.61035H1.75ZM0.25 13.6103C0.25 13.1961 0.585786 12.8603 1 12.8603C1.41421 12.8603 1.75 13.1961 1.75 13.6103H0.25ZM1.75 21.6104C1.75 22.0246 1.41421 22.3604 1 22.3604C0.585786 22.3604 0.25 22.0246 0.25 21.6104H1.75ZM0.25 29.6103C0.25 29.1961 0.585786 28.8603 1 28.8603C1.41421 28.8603 1.75 29.1961 1.75 29.6103H0.25ZM1.75 37.6103C1.75 38.0246 1.41421 38.3603 1 38.3603C0.585786 38.3603 0.25 38.0246 0.25 37.6103H1.75ZM0.25 45.6104C0.25 45.1961 0.585786 44.8604 1 44.8604C1.41421 44.8604 1.75 45.1961 1.75 45.6104H0.25ZM1.75 53.6103C1.75 54.0246 1.41421 54.3603 1 54.3603C0.585786 54.3603 0.25 54.0246 0.25 53.6103H1.75ZM0.25 61.6103C0.25 61.1961 0.585786 60.8603 1 60.8603C1.41421 60.8603 1.75 61.1961 1.75 61.6103H0.25ZM1.75 69.6104C1.75 70.0246 1.41421 70.3604 1 70.3604C0.585786 70.3604 0.25 70.0246 0.25 69.6104H1.75ZM0.25 77.6104C0.25 77.1961 0.585786 76.8604 1 76.8604C1.41421 76.8604 1.75 77.1961 1.75 77.6104H0.25ZM1.75 85.6104C1.75 86.0246 1.41421 86.3604 1 86.3604C0.585786 86.3604 0.25 86.0246 0.25 85.6104H1.75ZM0.25 93.6104C0.25 93.1961 0.585786 92.8604 1 92.8604C1.41421 92.8604 1.75 93.1961 1.75 93.6104H0.25ZM1.75 101.61C1.75 102.025 1.41421 102.36 1 102.36C0.585786 102.36 0.25 102.025 0.25 101.61H1.75ZM0.25 109.61C0.25 109.196 0.585786 108.86 1 108.86C1.41421 108.86 1.75 109.196 1.75 109.61H0.25ZM1.75 117.61C1.75 118.025 1.41421 118.36 1 118.36C0.585786 118.36 0.25 118.025 0.25 117.61H1.75ZM0.25 125.61C0.25 125.196 0.585786 124.86 1 124.86C1.41421 124.86 1.75 125.196 1.75 125.61H0.25ZM10.05 133.86C10.4642 133.86 10.8 134.196 10.8 134.61C10.8 135.025 10.4642 135.36 10.05 135.36V133.86ZM18.15 135.36C17.7358 135.36 17.4 135.025 17.4 134.61C17.4 134.196 17.7358 133.86 18.15 133.86V135.36ZM26.25 133.86C26.6642 133.86 27 134.196 27 134.61C27 135.025 26.6642 135.36 26.25 135.36V133.86ZM34.35 135.36C33.9358 135.36 33.6 135.025 33.6 134.61C33.6 134.196 33.9358 133.86 34.35 133.86V135.36ZM42.45 133.86C42.8642 133.86 43.2 134.196 43.2 134.61C43.2 135.025 42.8642 135.36 42.45 135.36V133.86ZM50.55 135.36C50.1358 135.36 49.8 135.025 49.8 134.61C49.8 134.196 50.1358 133.86 50.55 133.86V135.36ZM58.65 133.86C59.0642 133.86 59.4 134.196 59.4 134.61C59.4 135.025 59.0642 135.36 58.65 135.36V133.86ZM66.75 135.36C66.3358 135.36 66 135.025 66 134.61C66 134.196 66.3358 133.86 66.75 133.86V135.36ZM74.85 133.86C75.2642 133.86 75.6 134.196 75.6 134.61C75.6 135.025 75.2642 135.36 74.85 135.36V133.86ZM82.95 135.36C82.5358 135.36 82.2 135.025 82.2 134.61C82.2 134.196 82.5358 133.86 82.95 133.86V135.36ZM91.05 133.86C91.4642 133.86 91.8 134.196 91.8 134.61C91.8 135.025 91.4642 135.36 91.05 135.36V133.86ZM99.15 135.36C98.7358 135.36 98.4 135.025 98.4 134.61C98.4 134.196 98.7358 133.86 99.15 133.86V135.36ZM107.25 133.86C107.664 133.86 108 134.196 108 134.61C108 135.025 107.664 135.36 107.25 135.36V133.86ZM115.35 135.36C114.936 135.36 114.6 135.025 114.6 134.61C114.6 134.196 114.936 133.86 115.35 133.86V135.36ZM123.45 133.86C123.864 133.86 124.2 134.196 124.2 134.61C124.2 135.025 123.864 135.36 123.45 135.36V133.86ZM131.55 135.36C131.136 135.36 130.8 135.025 130.8 134.61C130.8 134.196 131.136 133.86 131.55 133.86V135.36ZM139.65 133.86C140.064 133.86 140.4 134.196 140.4 134.61C140.4 135.025 140.064 135.36 139.65 135.36V133.86ZM147.75 135.36C147.336 135.36 147 135.025 147 134.61C147 134.196 147.336 133.86 147.75 133.86V135.36ZM155.85 133.86C156.264 133.86 156.6 134.196 156.6 134.61C156.6 135.025 156.264 135.36 155.85 135.36V133.86ZM163.95 135.36C163.536 135.36 163.2 135.025 163.2 134.61C163.2 134.196 163.536 133.86 163.95 133.86V135.36ZM172.05 133.86C172.464 133.86 172.8 134.196 172.8 134.61C172.8 135.025 172.464 135.36 172.05 135.36V133.86ZM180.15 135.36C179.736 135.36 179.4 135.025 179.4 134.61C179.4 134.196 179.736 133.86 180.15 133.86V135.36ZM188.25 133.86C188.664 133.86 189 134.196 189 134.61C189 135.025 188.664 135.36 188.25 135.36V133.86ZM196.35 135.36C195.936 135.36 195.6 135.025 195.6 134.61C195.6 134.196 195.936 133.86 196.35 133.86V135.36ZM204.45 133.86C204.864 133.86 205.2 134.196 205.2 134.61C205.2 135.025 204.864 135.36 204.45 135.36V133.86ZM212.55 135.36C212.136 135.36 211.8 135.025 211.8 134.61C211.8 134.196 212.136 133.86 212.55 133.86V135.36ZM220.65 133.86C221.064 133.86 221.4 134.196 221.4 134.61C221.4 135.025 221.064 135.36 220.65 135.36V133.86ZM228.75 135.36C228.336 135.36 228 135.025 228 134.61C228 134.196 228.336 133.86 228.75 133.86V135.36ZM236.85 133.86C237.264 133.86 237.6 134.196 237.6 134.61C237.6 135.025 237.264 135.36 236.85 135.36V133.86ZM244.95 135.36C244.536 135.36 244.2 135.025 244.2 134.61C244.2 134.196 244.536 133.86 244.95 133.86V135.36ZM253.25 125.61C253.25 125.196 253.586 124.86 254 124.86C254.414 124.86 254.75 125.196 254.75 125.61H253.25ZM254.75 117.61C254.75 118.025 254.414 118.36 254 118.36C253.586 118.36 253.25 118.025 253.25 117.61H254.75ZM253.25 109.61C253.25 109.196 253.586 108.86 254 108.86C254.414 108.86 254.75 109.196 254.75 109.61H253.25ZM254.75 101.61C254.75 102.025 254.414 102.36 254 102.36C253.586 102.36 253.25 102.025 253.25 101.61H254.75ZM253.25 93.6103C253.25 93.1961 253.586 92.8603 254 92.8603C254.414 92.8603 254.75 93.1961 254.75 93.6103H253.25ZM254.75 85.6103C254.75 86.0246 254.414 86.3603 254 86.3603C253.586 86.3603 253.25 86.0246 253.25 85.6103H254.75ZM253.25 77.6103C253.25 77.1961 253.586 76.8603 254 76.8603C254.414 76.8603 254.75 77.1961 254.75 77.6103H253.25ZM254.75 69.6104C254.75 70.0246 254.414 70.3604 254 70.3604C253.586 70.3604 253.25 70.0246 253.25 69.6104H254.75ZM253.25 61.6104C253.25 61.1961 253.586 60.8604 254 60.8604C254.414 60.8604 254.75 61.1961 254.75 61.6104H253.25ZM254.75 53.6103C254.75 54.0246 254.414 54.3603 254 54.3603C253.586 54.3603 253.25 54.0246 253.25 53.6103H254.75ZM253.25 45.6103C253.25 45.1961 253.586 44.8603 254 44.8603C254.414 44.8603 254.75 45.1961 254.75 45.6103H253.25ZM254.75 37.6103C254.75 38.0246 254.414 38.3603 254 38.3603C253.586 38.3603 253.25 38.0246 253.25 37.6103H254.75ZM253.25 29.6103C253.25 29.1961 253.586 28.8603 254 28.8603C254.414 28.8603 254.75 29.1961 254.75 29.6103H253.25ZM254.75 21.6103C254.75 22.0246 254.414 22.3603 254 22.3603C253.586 22.3603 253.25 22.0246 253.25 21.6103H254.75ZM253.25 13.6103C253.25 13.1961 253.586 12.8603 254 12.8603C254.414 12.8603 254.75 13.1961 254.75 13.6103H253.25ZM254.75 5.61035C254.75 6.02455 254.414 6.36035 254 6.36035C253.586 6.36035 253.25 6.02455 253.25 5.61035H254.75ZM1.75 1.61035V5.61035H0.25V1.61035H1.75ZM1.75 13.6103V21.6104H0.25V13.6103H1.75ZM1.75 29.6103V37.6103H0.25V29.6103H1.75ZM1.75 45.6104V53.6103H0.25V45.6104H1.75ZM1.75 61.6103V69.6104H0.25V61.6103H1.75ZM1.75 77.6104V85.6104H0.25V77.6104H1.75ZM1.75 93.6104V101.61H0.25V93.6104H1.75ZM1.75 109.61V117.61H0.25V109.61H1.75ZM1.75 125.61V129.61H0.25V125.61H1.75ZM1.75 129.61C1.75 131.958 3.65279 133.86 6 133.86V135.36C2.82436 135.36 0.25 132.786 0.25 129.61H1.75ZM6 133.86H10.05V135.36H6V133.86ZM18.15 133.86H26.25V135.36H18.15V133.86ZM34.35 133.86H42.45V135.36H34.35V133.86ZM50.55 133.86H58.65V135.36H50.55V133.86ZM66.75 133.86H74.85V135.36H66.75V133.86ZM82.95 133.86H91.05V135.36H82.95V133.86ZM99.15 133.86H107.25V135.36H99.15V133.86ZM115.35 133.86H123.45V135.36H115.35V133.86ZM131.55 133.86H139.65V135.36H131.55V133.86ZM147.75 133.86H155.85V135.36H147.75V133.86ZM163.95 133.86H172.05V135.36H163.95V133.86ZM180.15 133.86H188.25V135.36H180.15V133.86ZM196.35 133.86H204.45V135.36H196.35V133.86ZM212.55 133.86H220.65V135.36H212.55V133.86ZM228.75 133.86H236.85V135.36H228.75V133.86ZM244.95 133.86H249V135.36H244.95V133.86ZM249 133.86C251.347 133.86 253.25 131.958 253.25 129.61H254.75C254.75 132.786 252.176 135.36 249 135.36V133.86ZM253.25 129.61V125.61H254.75V129.61H253.25ZM253.25 117.61V109.61H254.75V117.61H253.25ZM253.25 101.61V93.6103H254.75V101.61H253.25ZM253.25 85.6103V77.6103H254.75V85.6103H253.25ZM253.25 69.6104V61.6104H254.75V69.6104H253.25ZM253.25 53.6103V45.6103H254.75V53.6103H253.25ZM253.25 37.6103V29.6103H254.75V37.6103H253.25ZM253.25 21.6103V13.6103H254.75V21.6103H253.25ZM253.25 5.61035V1.61035H254.75V5.61035H253.25Z" fill="#8A8888"/>
</svg>
