<svg width="54" height="47" viewBox="0 0 54 47" fill="none" xmlns="http://www.w3.org/2000/svg">
<path d="M27.7105 34.76C33.1971 34.76 37.6632 30.379 37.6632 25.0048C37.6632 19.6228 33.1969 15.2496 27.7105 15.2496C22.2315 15.2496 17.7656 19.6231 17.7656 25.0048C17.7656 30.3796 22.2318 34.76 27.7105 34.76Z" fill="#CBB702"/>
<path d="M26.0461 11.8918L27.7111 8.62511L29.3764 11.8918C29.5071 12.1552 29.7832 12.3057 30.0672 12.3057C30.1823 12.3057 30.2974 12.283 30.4125 12.223C30.7884 12.0349 30.9419 11.583 30.7577 11.2142L28.4095 6.60003C28.2637 6.34411 28.0028 6.18616 27.7111 6.18616C27.4195 6.18616 27.1586 6.34411 27.0283 6.60003L24.6802 11.2142C24.4884 11.583 24.6418 12.0345 25.0254 12.223C25.3938 12.4115 25.8541 12.2606 26.0462 11.8918L26.0461 11.8918Z" fill="#CBB702"/>
<path d="M20.4046 14.098C20.5353 13.7065 20.3203 13.2777 19.9212 13.1421L14.9331 11.5086C14.657 11.4184 14.3498 11.4858 14.1504 11.6892C13.951 11.8926 13.8743 12.1862 13.9662 12.457L15.6316 17.3499C15.739 17.6661 16.0383 17.8617 16.3607 17.8617C16.4374 17.8617 16.5218 17.8468 16.6064 17.8241C17.0056 17.6959 17.2281 17.2672 17.0899 16.8756L15.9156 13.4129L19.4457 14.5648C19.8369 14.7075 20.2664 14.497 20.4047 14.098L20.4046 14.098Z" fill="#CBB702"/>
<path d="M8.94823 25.6755L13.6522 27.9788C13.7596 28.0313 13.8823 28.0615 13.9974 28.0615C14.2815 28.0615 14.55 27.911 14.6882 27.6476C14.88 27.2788 14.7266 26.8273 14.343 26.6388L11.0127 25.0053L14.343 23.3717C14.719 23.1836 14.8724 22.7317 14.6882 22.3629C14.504 21.9941 14.0357 21.8436 13.6598 22.0243L8.95584 24.3276C8.68734 24.4557 8.52631 24.7195 8.52631 25.0052C8.52631 25.2913 8.68733 25.5547 8.94823 25.6754L8.94823 25.6755Z" fill="#CBB702"/>
<path d="M14.1432 38.3131C14.2891 38.4562 14.4885 38.5314 14.6882 38.5314C14.7725 38.5314 14.8492 38.5165 14.9339 38.4938L19.9219 36.8603C20.3211 36.7321 20.5436 36.3033 20.4054 35.9044C20.2747 35.5129 19.8376 35.2946 19.4385 35.4302L15.9084 36.582L17.0827 33.1193C17.2133 32.7278 16.9984 32.299 16.5992 32.1708C16.1925 32.0352 15.763 32.2535 15.6323 32.6451L13.967 37.5379C13.8671 37.8087 13.9359 38.1098 14.1432 38.3132L14.1432 38.3131Z" fill="#CBB702"/>
<path d="M27.0277 43.4087C27.1583 43.6646 27.4192 43.823 27.7105 43.823C28.0022 43.823 28.2631 43.665 28.3934 43.4091L30.7415 38.7949C30.9333 38.4261 30.7798 37.9746 30.3963 37.7861C30.0203 37.598 29.56 37.7485 29.3678 38.1247L27.7105 41.384L26.0451 38.1173C25.8534 37.7485 25.3927 37.598 25.0167 37.7787C24.6407 37.9668 24.4873 38.4187 24.6715 38.7875L27.0277 43.4087Z" fill="#CBB702"/>
<path d="M35.0157 35.9121C34.8851 36.3036 35.1001 36.7324 35.4992 36.868L40.4872 38.5015C40.5639 38.5242 40.6482 38.5391 40.7329 38.5391C40.9323 38.5391 41.132 38.4639 41.2779 38.3208C41.4852 38.1174 41.554 37.8239 41.462 37.553L39.7967 32.6602C39.6661 32.2687 39.229 32.0504 38.8298 32.186C38.4307 32.3141 38.2081 32.7429 38.3464 33.1418L39.5206 36.6045L35.9906 35.4527C35.5835 35.3022 35.1536 35.513 35.0157 35.912V35.9121Z" fill="#CBB702"/>
<path d="M40.7403 22.3634C40.5485 22.7322 40.7019 23.1837 41.0855 23.3722L44.4086 25.0053L41.0783 26.6389C40.7023 26.827 40.5489 27.2789 40.7331 27.6477C40.8713 27.9111 41.1398 28.0616 41.4239 28.0616C41.539 28.0616 41.6541 28.0388 41.7691 27.9789L46.4731 25.6755C46.7336 25.5548 46.895 25.2915 46.895 25.0054C46.895 24.7193 46.734 24.4559 46.4731 24.3356L41.7691 22.0322C41.3928 21.8367 40.9325 21.9872 40.7403 22.3634L40.7403 22.3634Z" fill="#CBB702"/>
<path d="M41.2777 11.6966C41.0703 11.4932 40.771 11.4257 40.4949 11.5159L35.5069 13.1494C35.1077 13.2776 34.8852 13.7064 35.0234 14.1053C35.1541 14.4968 35.5912 14.7151 35.9903 14.5796L39.5204 13.4277L38.3462 16.8904C38.2155 17.2819 38.4305 17.7107 38.8296 17.8463C38.9139 17.8765 38.9906 17.8839 39.0753 17.8839C39.3978 17.8839 39.697 17.6805 39.8045 17.372L41.4698 12.4792C41.5538 12.2009 41.4847 11.8999 41.2777 11.6965L41.2777 11.6966Z" fill="#CBB702"/>
</svg>
