<svg width="54" height="47" viewBox="0 0 54 47" fill="none" xmlns="http://www.w3.org/2000/svg">
<path d="M45.9812 20.524H43.2043C42.8024 20.524 42.4552 20.2551 42.3091 19.8428C42.1445 19.3948 41.9619 18.9467 41.7427 18.5166C41.56 18.1225 41.6147 17.6921 41.8888 17.4236L43.8621 15.506C44.2093 15.1477 44.2093 14.5921 43.8621 14.2334L38.6915 9.1614C38.3262 8.82081 37.7598 8.82081 37.3941 9.1614L35.4392 11.097C35.1651 11.366 34.7267 11.4195 34.3249 11.2404C33.8865 11.0254 33.4297 10.8462 32.9545 10.6848C32.5526 10.5415 32.2785 10.2009 32.2785 9.80669L32.2781 7.08234C32.2781 6.58068 31.8763 6.18616 31.3645 6.18616H24.0563C23.5449 6.18616 23.1431 6.58068 23.1431 7.08234V9.80633C23.1431 10.2005 22.8689 10.5411 22.4486 10.6844C21.9918 10.8458 21.535 11.025 21.0966 11.2404C20.6948 11.4195 20.2561 11.366 19.9823 11.097L18.0271 9.16139C17.6618 8.8208 17.0954 8.8208 16.7297 9.16139L11.5594 14.2334C11.2122 14.5917 11.2122 15.1472 11.5594 15.506L13.5327 17.4236C13.8069 17.6925 13.8615 18.1225 13.6788 18.5166C13.4593 18.9466 13.2766 19.3947 13.1124 19.8605C12.9663 20.2551 12.6191 20.524 12.2169 20.524H9.43992C8.92851 20.524 8.52631 20.9181 8.52631 21.4202V28.5889C8.52631 29.0906 8.92814 29.4851 9.43992 29.4851H12.2169C12.6187 29.4851 12.9659 29.754 13.1121 30.1482C13.2766 30.614 13.4593 31.062 13.6785 31.4925C13.8611 31.8866 13.8065 32.317 13.5323 32.5855L11.5593 34.5027C11.3948 34.6819 11.2852 34.8969 11.2852 35.1481C11.2852 35.3812 11.3948 35.6139 11.5593 35.7753L16.73 40.8473C17.0953 41.1879 17.6616 41.1879 18.0273 40.8473L19.9822 38.9117C20.2564 38.6427 20.6947 38.5892 21.0965 38.7683C21.5349 38.9833 21.9917 39.1625 22.467 39.3239C22.8688 39.4673 23.143 39.8078 23.143 40.202V42.9264C23.143 43.428 23.5448 43.8225 24.0566 43.8225H31.3648C31.8762 43.8225 32.2784 43.4284 32.2784 42.9264V40.2024C32.2784 39.8082 32.5525 39.4676 32.9544 39.3243C33.4292 39.1629 33.886 38.9837 34.3248 38.7687C34.7266 38.5895 35.1653 38.6431 35.4391 38.912L37.394 40.8477C37.7593 41.1883 38.3256 41.1883 38.6914 40.8477L43.862 35.7757C44.0266 35.6143 44.1361 35.3815 44.1361 35.1484C44.1361 34.8976 44.0266 34.6826 43.862 34.5031L41.8887 32.5855C41.6146 32.3166 41.5599 31.8866 41.7426 31.4925C41.9618 31.0625 42.1444 30.6144 42.309 30.1482C42.4551 29.754 42.8023 29.4851 43.2042 29.4851L45.9811 29.4847C46.4925 29.4847 46.8947 29.0906 46.8947 28.5886V21.4198C46.8944 20.9182 46.4925 20.524 45.9811 20.524L45.9812 20.524ZM34.1056 25.0042C34.1056 28.4629 31.2371 31.2767 27.7111 31.2767C24.1846 31.277 21.3162 28.4632 21.3162 25.0042C21.3162 21.5454 24.1846 18.7317 27.7107 18.7317C31.2371 18.7317 34.1056 21.5454 34.1056 25.0042Z" fill="#363636"/>
</svg>
