<svg width="26" height="27" viewBox="0 0 26 27" fill="none" xmlns="http://www.w3.org/2000/svg">
<path d="M15.4069 13.1971C15.4069 14.5262 14.3294 15.6036 13.0003 15.6036C11.6712 15.6036 10.5938 14.5262 10.5938 13.1971C10.5938 11.868 11.6712 10.7905 13.0003 10.7905C14.3294 10.7905 15.4069 11.868 15.4069 13.1971Z" fill="white"/>
<path d="M18.7207 8.86888C18.6031 8.55023 18.4155 8.26181 18.1717 8.02506C17.935 7.7813 17.6467 7.5937 17.3279 7.47611C17.0693 7.37568 16.6808 7.25613 15.9653 7.22357C15.1913 7.18827 14.9593 7.18066 12.9998 7.18066C11.0401 7.18066 10.8081 7.18807 10.0343 7.22337C9.31876 7.25613 8.93011 7.37568 8.67172 7.47611C8.35287 7.5937 8.06445 7.7813 7.8279 8.02506C7.58414 8.26181 7.39654 8.55003 7.27875 8.86888C7.17832 9.12746 7.05878 9.51612 7.02621 10.2316C6.99091 11.0054 6.98331 11.2375 6.98331 13.1972C6.98331 15.1566 6.99091 15.3887 7.02621 16.1627C7.05878 16.8782 7.17832 17.2667 7.27875 17.5252C7.39654 17.8441 7.58394 18.1323 7.82771 18.3691C8.06445 18.6128 8.35268 18.8004 8.67152 18.918C8.93011 19.0186 9.31876 19.1382 10.0343 19.1707C10.8081 19.206 11.0399 19.2135 12.9996 19.2135C14.9595 19.2135 15.1915 19.206 15.9651 19.1707C16.6806 19.1382 17.0693 19.0186 17.3279 18.918C17.9679 18.6711 18.4738 18.1653 18.7207 17.5252C18.8211 17.2667 18.9406 16.8782 18.9734 16.1627C19.0087 15.3887 19.0161 15.1566 19.0161 13.1972C19.0161 11.2375 19.0087 11.0054 18.9734 10.2316C18.9408 9.51612 18.8213 9.12746 18.7207 8.86888ZM12.9998 16.9654C10.9184 16.9654 9.2312 15.2783 9.2312 13.197C9.2312 11.1156 10.9184 9.42856 12.9998 9.42856C15.081 9.42856 16.7682 11.1156 16.7682 13.197C16.7682 15.2783 15.081 16.9654 12.9998 16.9654ZM16.9172 10.1602C16.4308 10.1602 16.0365 9.76593 16.0365 9.27957C16.0365 8.79321 16.4308 8.3989 16.9172 8.3989C17.4035 8.3989 17.7979 8.79321 17.7979 9.27957C17.7977 9.76593 17.4035 10.1602 16.9172 10.1602Z" fill="white"/>
<path d="M12.9997 0.261719C5.85685 0.261719 0.0644531 6.05412 0.0644531 13.197C0.0644531 20.3398 5.85685 26.1322 12.9997 26.1322C20.1426 26.1322 25.935 20.3398 25.935 13.197C25.935 6.05412 20.1426 0.261719 12.9997 0.261719ZM20.3826 16.2593C20.3466 17.05 20.2209 17.5898 20.0374 18.0623C19.6515 19.06 18.8628 19.8487 17.865 20.2346C17.3927 20.4182 16.8527 20.5437 16.0622 20.5798C15.2701 20.616 15.0171 20.6246 12.9999 20.6246C10.9825 20.6246 10.7297 20.616 9.93741 20.5798C9.14692 20.5437 8.6069 20.4182 8.13458 20.2346C7.63877 20.0481 7.18993 19.7558 6.81887 19.3778C6.44109 19.0069 6.14877 18.5579 5.96225 18.0623C5.77869 17.59 5.65297 17.05 5.61704 16.2595C5.58053 15.4672 5.57204 15.2142 5.57204 13.197C5.57204 11.1798 5.58053 10.9267 5.61685 10.1347C5.65277 9.34399 5.7783 8.80416 5.96186 8.33165C6.14838 7.83603 6.44089 7.387 6.81887 7.01613C7.18974 6.63816 7.63877 6.34584 8.13438 6.15932C8.6069 5.97576 9.14672 5.85023 9.93741 5.81411C10.7295 5.77799 10.9825 5.76931 12.9997 5.76931C15.0169 5.76931 15.2699 5.77799 16.062 5.81431C16.8527 5.85023 17.3925 5.97576 17.865 6.15912C18.3606 6.34565 18.8097 6.63816 19.1807 7.01613C19.5585 7.3872 19.851 7.83603 20.0374 8.33165C20.2211 8.80416 20.3466 9.34399 20.3828 10.1347C20.4189 10.9267 20.4274 11.1798 20.4274 13.197C20.4274 15.2142 20.4189 15.4672 20.3826 16.2593Z" fill="white"/>
</svg>
