<svg width="74" height="69" viewBox="0 0 74 69" fill="none" xmlns="http://www.w3.org/2000/svg">
<path d="M59.7535 19.6445C58.7761 19.6445 57.8111 19.7528 56.8574 19.9584C56.9421 19.3311 56.9901 18.7157 56.9901 18.0884C56.9901 10.7158 50.9936 4.71937 43.621 4.71937C41.5336 4.71937 39.4703 5.21398 37.6122 6.15526C34.3542 2.23388 29.6366 0.0137329 24.5085 0.0137329C15.0853 0.0137329 7.41052 7.67522 7.41052 17.1C7.41052 18.4511 7.56751 19.8029 7.89331 21.1061C3.42862 23.3742 0.605469 27.9473 0.605469 33.0149C0.605469 40.3992 6.60188 46.3956 13.9745 46.3956H14.7949L13.0451 50.0392C12.8763 50.4011 12.9006 50.8235 13.1055 51.1736C13.3229 51.5112 13.6967 51.7168 14.0947 51.7168H18.1732L14.5775 63.602C14.4205 64.1328 14.6622 64.7121 15.1568 64.9775C15.3256 65.0741 15.5188 65.1102 15.7001 65.1102C16.0502 65.1102 16.3878 64.9532 16.617 64.676L31.2649 46.3959H38.3714L36.5014 50.2811C36.3326 50.643 36.3569 51.0654 36.5618 51.4155C36.7792 51.7531 37.153 51.9587 37.551 51.9587H42.7632L38.3471 66.5225C38.1901 67.0657 38.4318 67.6325 38.9264 67.8979C39.0952 67.9945 39.2883 68.0306 39.4696 68.0306C39.8197 68.0306 40.1574 67.8736 40.3866 67.5964L57.3753 46.3971H59.7643C67.1487 46.3971 73.1451 40.3882 73.1451 33.0163C73.1339 25.6419 67.125 19.6453 59.7524 19.6453L59.7535 19.6445ZM18.5605 58.4849L20.8654 50.8831C20.9738 50.533 20.9016 50.1468 20.6842 49.8453C20.4667 49.5438 20.1173 49.375 19.7429 49.375H15.9542L22.4458 35.8609H27.5496L23.0009 44.8499C22.8196 45.2119 22.8321 45.646 23.0488 45.9961C23.2663 46.3462 23.64 46.5512 24.0505 46.5512H28.129L18.5605 58.4849ZM42.331 61.4053L45.4438 51.1248C45.5522 50.7747 45.48 50.3884 45.2626 50.0869C45.0451 49.7854 44.6957 49.6166 44.3213 49.6166H39.3982L47.4224 32.9292H54.0704L48.4359 44.0662C48.2546 44.4281 48.267 44.8623 48.4838 45.2124C48.7012 45.5625 49.075 45.7674 49.4855 45.7674H54.8671L42.331 61.4053ZM59.7535 44.055H58.3294C58.1245 43.6688 57.7383 43.4277 57.3041 43.4277H51.3917L57.0263 32.2908C57.2076 31.9289 57.1951 31.4947 56.9783 31.1446C56.7609 30.7945 56.3872 30.5896 55.9766 30.5896H46.6861C46.2394 30.5896 45.8295 30.8431 45.6364 31.253L39.4829 44.0427H26.0292L30.4939 35.2107C30.6752 34.8488 30.6627 34.4146 30.4459 34.0645C30.2285 33.7144 29.8547 33.5094 29.4442 33.5094H21.698C21.2513 33.5094 20.8414 33.763 20.6483 34.1728L15.9065 44.0427H13.9642C7.88299 44.0427 2.9362 39.0835 2.9362 33.0023C2.9362 28.5376 5.60297 24.5322 9.72933 22.8185C10.2844 22.5893 10.574 21.9738 10.3928 21.3944C9.95858 20.0071 9.74116 18.5469 9.74116 17.0868C9.74116 8.95431 16.353 2.34228 24.4981 2.34228C29.2157 2.34228 33.5358 4.52628 36.3589 8.35114C36.7209 8.83393 37.3843 8.96662 37.9032 8.65264C39.6288 7.60298 41.6072 7.04793 43.6106 7.04793C49.6917 7.04793 54.6385 11.9947 54.6385 18.0759C54.6385 19.1741 54.4815 20.2599 54.1557 21.3214C54.023 21.7556 54.1557 22.2141 54.4815 22.5163C54.8191 22.8178 55.2901 22.9025 55.7 22.7455C56.9789 22.2384 58.3426 21.973 59.7298 21.973C65.8228 21.973 70.7702 26.9198 70.7702 33.001C70.7939 39.1077 65.8345 44.0552 59.7534 44.0552L59.7535 44.055Z" fill="#86BE3F"/>
</svg>
