<svg width="281" height="143" viewBox="0 0 281 143" fill="none" xmlns="http://www.w3.org/2000/svg">
<path d="M280.654 137.141C280.947 136.848 280.947 136.373 280.654 136.08L275.881 131.307C275.588 131.014 275.113 131.014 274.82 131.307C274.527 131.6 274.527 132.075 274.82 132.368L279.063 136.61L274.82 140.853C274.527 141.146 274.527 141.621 274.82 141.914C275.113 142.207 275.588 142.207 275.881 141.914L280.654 137.141ZM1.75 136.61V6.61035H0.25V136.61H1.75ZM6 2.36035H248.986V0.860352H6V2.36035ZM253.236 6.61035V131.61H254.736V6.61035H253.236ZM258.986 137.36H280.123V135.86H258.986V137.36ZM253.236 131.61C253.236 134.786 255.811 137.36 258.986 137.36V135.86C256.639 135.86 254.736 133.958 254.736 131.61H253.236ZM248.986 2.36035C251.334 2.36035 253.236 4.26314 253.236 6.61035H254.736C254.736 3.43472 252.162 0.860352 248.986 0.860352V2.36035ZM1.75 6.61035C1.75 4.26314 3.65279 2.36035 6 2.36035V0.860352C2.82436 0.860352 0.25 3.43471 0.25 6.61035H1.75Z" fill="#86BE3F"/>
</svg>
