<svg width="23" height="15" viewBox="0 0 23 15" fill="none" xmlns="http://www.w3.org/2000/svg">
<path d="M1.0953 0C1.00697 0 0.920773 0.0145119 0.838603 0.0342262L11.0038 9.13839C11.2369 9.34704 11.7632 9.34704 11.9963 9.13839L22.1615 0.0342262C22.0793 0.0145119 21.9932 0 21.9048 0H1.0953ZM0.0428302 0.804315C0.0176397 0.896918 6.10352e-05 0.994394 6.10352e-05 1.09524V13.6905C6.10352e-05 13.7884 0.018954 13.8826 0.0428302 13.9728L7.35869 7.35009L0.0428302 0.804315ZM22.9573 0.804315L15.6414 7.35009L22.9573 13.9728C22.9811 13.8826 23.0001 13.7884 23.0001 13.6905V1.09524C23.0001 0.994394 22.9825 0.896918 22.9573 0.804315ZM8.18012 8.08592L0.830033 14.743C0.915406 14.764 1.00319 14.7857 1.0953 14.7857H21.9048C21.9969 14.7857 22.0847 14.7641 22.1701 14.743L14.82 8.08592L12.7322 9.95128C12.0358 10.5747 10.9644 10.5747 10.2679 9.95128L8.18012 8.08592Z" fill="#86BE3F"/>
</svg>
